<?xml version="1.0" standalone="no"?>
<!DOCTYPE svg PUBLIC "-//W3C//DTD SVG 20010904//EN"
 "http://www.w3.org/TR/2001/REC-SVG-20010904/DTD/svg10.dtd">
<svg version="1.0" xmlns="http://www.w3.org/2000/svg"
 width="548.000000pt" height="548.000000pt" viewBox="0 0 548.000000 548.000000"
 preserveAspectRatio="xMidYMid meet">
<metadata>
Created by potrace 1.14, written by Peter Selinger 2001-2017
</metadata>
<g transform="translate(0.000000,548.000000) scale(0.100000,-0.100000)"
fill="#000000" stroke="none">
<path d="M3015 5474 c-194 -30 -325 -65 -487 -130 -241 -96 -463 -224 -924
-531 -164 -110 -355 -232 -424 -273 -233 -137 -274 -164 -362 -237 -48 -41
-122 -115 -164 -166 -597 -710 -717 -1924 -278 -2799 160 -318 366 -558 717
-832 502 -392 1003 -556 1504 -491 312 41 560 128 1018 357 493 247 626 300
866 348 173 34 247 58 354 113 350 182 535 570 535 1123 0 853 -449 2047
-1074 2854 -113 147 -331 362 -441 436 -228 155 -424 221 -675 229 -74 2 -148
1 -165 -1z m-808 -1808 c80 -21 140 -56 189 -108 71 -76 129 -220 136 -337 l3
-44 -110 -28 c-60 -16 -112 -29 -115 -29 -4 0 -12 38 -18 85 -19 129 -64 215
-132 250 -78 40 -219 23 -272 -32 -57 -60 -74 -166 -43 -269 22 -72 78 -134
290 -317 215 -186 263 -234 329 -333 170 -256 127 -600 -94 -739 -78 -49 -156
-68 -275 -68 -164 0 -260 38 -363 144 -78 81 -138 233 -144 363 l-3 59 105 28
c58 16 110 29 116 29 6 0 18 -45 27 -102 26 -157 83 -259 164 -294 49 -21 159
-18 207 6 79 38 114 126 103 256 -10 132 -63 200 -361 463 -218 193 -260 236
-299 302 -76 131 -86 357 -21 499 28 62 99 139 159 174 40 24 122 51 180 60
47 7 186 -3 242 -18z m1228 -20 c188 -55 290 -169 330 -372 14 -69 16 -154 13
-605 -3 -460 -6 -531 -21 -584 -42 -145 -123 -258 -223 -308 -104 -53 -148
-59 -461 -64 l-293 -5 0 982 0 982 298 -5 c242 -3 308 -7 357 -21z"/>
<path d="M3057 3463 c-4 -3 -7 -355 -7 -781 l0 -774 138 4 c121 3 143 6 187
28 57 29 88 69 113 149 15 50 17 113 17 596 0 484 -2 547 -18 604 -30 111 -76
151 -198 171 -72 11 -222 14 -232 3z"/>
</g>
</svg>
