<svg width="11" height="11" viewBox="0 0 11 11" fill="none" xmlns="http://www.w3.org/2000/svg">
<path d="M1.13101 10.3235L0.676307 9.86884C0.550744 9.74328 0.551844 9.5386 0.678764 9.41168L8.11081 1.97963L4.04661 2.00605C3.96042 2.00687 3.87784 1.97323 3.81722 1.91261C3.75659 1.85199 3.72296 1.76941 3.72377 1.68321L3.73181 1.03859C3.73192 0.952395 3.76645 0.869448 3.82772 0.808172C3.889 0.746896 3.97195 0.712367 4.05814 0.712257L9.66754 0.677536C9.7961 0.676765 9.91916 0.727078 10.0097 0.817414L10.1824 0.990201C10.2716 1.08148 10.3217 1.20404 10.3223 1.33231L10.2876 6.94172C10.2875 7.02791 10.253 7.11086 10.1917 7.17213C10.1304 7.23341 10.0475 7.26794 9.96127 7.26805L9.3121 7.27153C9.22696 7.27286 9.14523 7.23987 9.08535 7.17999C9.02547 7.12011 8.99248 7.03838 8.9938 6.95324L9.02022 2.88905L1.58817 10.3211C1.46125 10.448 1.25658 10.4491 1.13101 10.3235Z" fill="white"/>
</svg>
