<?xml version="1.0" encoding="utf-8"?>
<!-- Generator: Adobe Illustrator 26.5.0, SVG Export Plug-In . SVG Version: 6.00 Build 0)  -->
<svg version="1.1" id="Calque_1" xmlns="http://www.w3.org/2000/svg" xmlns:xlink="http://www.w3.org/1999/xlink" x="0px" y="0px"
	 viewBox="0 0 131.4 136.9" style="enable-background:new 0 0 131.4 136.9;" xml:space="preserve">
<style type="text/css">
	.st0{fill:#FFFFFF;}
</style>
<path d="M17.4,118.1c-28-26.5-19.4-79.2,6.2-92.8c20.3-10.7,50.9-43.5,78.3-11.8c25.5,29.4,47.7,99.5,7.3,105.4
	C86.7,122.1,59.7,158.2,17.4,118.1z"/>
<g>
	<path class="st0" d="M49.7,94.6c-2.8,0-5.2-0.6-7-1.8c-1.9-1.2-3.3-2.9-4.3-5c-1-2.1-1.5-4.6-1.7-7.4l6-1.6c0.1,1.7,0.4,3.4,0.8,5
		c0.4,1.6,1.1,2.9,2.1,4s2.3,1.5,4,1.5c1.8,0,3.1-0.5,4-1.5c0.9-1,1.4-2.4,1.4-4.3c0-2.2-0.5-4-1.5-5.3c-1-1.3-2.3-2.7-3.8-4.1
		l-8.2-7.2c-1.6-1.4-2.8-2.9-3.6-4.6c-0.8-1.7-1.1-3.7-1.1-6.2c0-3.6,1-6.4,3.1-8.3c2.1-2,4.8-3,8.4-3c1.9,0,3.6,0.3,5.1,0.8
		c1.5,0.5,2.7,1.3,3.7,2.3c1,1,1.8,2.4,2.4,4c0.6,1.6,1,3.5,1.2,5.6L54.8,59c-0.1-1.6-0.4-3.1-0.7-4.4c-0.4-1.3-1-2.4-1.9-3.3
		C51.3,50.4,50,50,48.3,50c-1.7,0-3,0.5-4,1.4c-0.9,0.9-1.4,2.2-1.4,4c0,1.5,0.3,2.7,0.8,3.7c0.5,1,1.3,2,2.4,3l8.3,7.2
		c1.9,1.6,3.5,3.5,4.9,5.8c1.4,2.2,2.1,4.9,2.1,7.9c0,2.4-0.5,4.5-1.5,6.2c-1,1.8-2.4,3.1-4.1,4C54,94.2,51.9,94.6,49.7,94.6z"/>
	<path class="st0" d="M66.7,94.1V45.2h10.6c3.6,0,6.5,0.6,8.6,1.7c2.1,1.1,3.6,2.8,4.5,5c0.9,2.2,1.4,5,1.4,8.3v18
		c0,3.5-0.5,6.4-1.4,8.8C89.5,89.2,88,91,86,92.3c-2,1.2-4.8,1.8-8.2,1.8H66.7z M73.5,89.2h3.9c2.5,0,4.3-0.5,5.3-1.4
		c1-1,1.7-2.4,1.9-4.2c0.2-1.9,0.3-4.1,0.3-6.7V61c0-2.5-0.2-4.6-0.5-6.2c-0.3-1.6-1-2.7-2.1-3.4c-1.1-0.7-2.8-1.1-5.1-1.1h-3.7
		V89.2z"/>
</g>
</svg>
